<?xml version="1.0" encoding="iso-8859-1"?>
<!-- Generator: Adobe Illustrator 18.1.1, SVG Export Plug-In . SVG Version: 6.00 Build 0)  -->
<svg version="1.1" id="Capa_1" xmlns="http://www.w3.org/2000/svg" xmlns:xlink="http://www.w3.org/1999/xlink" x="0px" y="0px"
	 viewBox="0 0 612 612" style="enable-background:new 0 0 612 612;" xml:space="preserve">
<g>
	<path d="M569.782,345.593v-2.663c0-12.677,10.313-22.991,22.991-22.991h10.151c-1.683-10.257-4.166-20.245-7.305-29.937H369.492
		c-0.015,0-0.027,0.003-0.041,0.003c-0.015,0-0.033-0.003-0.047-0.003H154.27c-0.015,0-0.03,0.003-0.044,0.003
		s-0.03-0.003-0.044-0.003H39.73c-8.169,0-14.793-6.621-14.793-14.793s6.624-14.793,14.793-14.793h88.283l-28.597-47.405H39.73
		c-8.169,0-14.793-6.621-14.793-14.793s6.624-14.793,14.793-14.793h279.043c0.006,0,0.009,0,0.015,0h197.328
		c-33.266-22.958-73.54-36.452-116.936-36.452H50.911C22.84,146.971,0,169.808,0,197.885v190.766
		c0,8.171,6.624,14.793,14.793,14.793h554.8c19.488,0,35.375-15.532,36.032-34.86H592.77
		C580.095,368.583,569.782,358.273,569.782,345.593z M507.191,345.593c0,12.677-10.313,22.991-22.991,22.991h-21.725
		c-12.677,0-22.991-10.31-22.991-22.991v-2.663c0-12.677,10.313-22.991,22.991-22.991H484.2c12.677,0,22.991,10.313,22.991,22.991
		V345.593z M427.083,260.413H377.4l-31.281-47.405h44.097L427.083,260.413z M583.441,260.413H464.558l-36.866-47.405h122.637
		C563.453,227.127,574.643,243.059,583.441,260.413z M341.954,260.413H162.563l-28.597-47.405H310.67L341.954,260.413z M612,450.233
		c0,8.171-6.624,14.793-14.793,14.793H14.793C6.624,465.026,0,458.405,0,450.233c0-8.171,6.624-14.793,14.793-14.793h582.415
		C605.379,435.44,612,442.062,612,450.233z"/>
</g>
<g>
</g>
<g>
</g>
<g>
</g>
<g>
</g>
<g>
</g>
<g>
</g>
<g>
</g>
<g>
</g>
<g>
</g>
<g>
</g>
<g>
</g>
<g>
</g>
<g>
</g>
<g>
</g>
<g>
</g>
</svg>
