<?xml version="1.0" encoding="utf-8"?>
<!-- Generator: Adobe Illustrator 16.0.0, SVG Export Plug-In . SVG Version: 6.00 Build 0)  -->
<!DOCTYPE svg PUBLIC "-//W3C//DTD SVG 1.1//EN" "http://www.w3.org/Graphics/SVG/1.1/DTD/svg11.dtd">
<svg version="1.1" id="Layer_1" xmlns="http://www.w3.org/2000/svg" xmlns:xlink="http://www.w3.org/1999/xlink" x="0px" y="0px"
	 width="141.73px" height="141.73px" viewBox="0 0 141.73 141.73" enable-background="new 0 0 141.73 141.73" xml:space="preserve">
<g>
	<path fill="#FFFFFF" d="M85.362,66.179v-0.251c0-1.184,0.962-2.145,2.147-2.145h0.946c-0.157-0.957-0.387-1.89-0.68-2.793H66.67
		h-0.005H66.66H46.581c0,0-0.003,0-0.005,0h-0.002H35.892c-0.763,0-1.385-0.619-1.385-1.379c0-0.766,0.622-1.382,1.385-1.382h8.238
		l-2.667-4.426h-5.57c-0.763,0-1.385-0.619-1.385-1.382s0.622-1.38,1.385-1.38h26.044l0,0h18.42
		c-3.104-2.142-6.866-3.401-10.911-3.401H36.934c-2.621,0-4.753,2.129-4.753,4.752v17.806c0,0.766,0.619,1.382,1.38,1.382h51.785
		c1.818,0,3.303-1.452,3.36-3.255H87.51C86.324,68.325,85.362,67.36,85.362,66.179z M79.52,66.179c0,1.181-0.962,2.146-2.143,2.146
		H75.35c-1.187,0-2.143-0.965-2.143-2.146v-0.251c0-1.184,0.956-2.145,2.143-2.145h2.027c1.181,0,2.143,0.961,2.143,2.145V66.179z
		 M72.048,58.226h-4.641l-2.918-4.424h4.115L72.048,58.226z M86.637,58.226H75.543l-3.443-4.424h11.444
		C84.777,55.122,85.817,56.606,86.637,58.226z M64.099,58.226H47.354l-2.668-4.424h16.492L64.099,58.226z M89.302,75.949
		c0,0.758-0.617,1.379-1.38,1.379H33.561c-0.761,0-1.38-0.621-1.38-1.379c0-0.764,0.619-1.385,1.38-1.385h54.361
		C88.685,74.564,89.302,75.185,89.302,75.949z"/>
</g>
<g>
	<path fill="#FFFFFF" d="M96.66,21.678c-8.617,0-15.604,6.984-15.604,15.601c0,8.62,6.986,15.604,15.604,15.604
		s15.604-6.984,15.604-15.604C112.263,28.663,105.277,21.678,96.66,21.678z M96.66,49.332c-6.657,0-12.051-5.395-12.051-12.053
		c0-6.655,5.394-12.05,12.051-12.05s12.05,5.396,12.05,12.05C108.71,43.937,103.317,49.332,96.66,49.332z"/>
	<path fill="#FFFFFF" d="M101.259,39.827c-0.126,0-0.262-0.019-0.397-0.055l-5.032-1.356c-0.674-0.18-1.145-0.794-1.145-1.491
		v-7.742c0-0.854,0.695-1.547,1.547-1.547c0.857,0,1.547,0.692,1.547,1.547v6.556l3.888,1.045c0.826,0.222,1.312,1.074,1.087,1.899
		C102.575,39.372,101.948,39.827,101.259,39.827L101.259,39.827z"/>
</g>
<g>
	<path fill="#FFFFFF" d="M32.041,114.796c-1.625-0.69-3.25-2.075-3.815-3.909c-0.528,1.944-2.137,3.47-3.762,4.196l-0.303-0.434
		c1.881-0.773,3.809-2.78,3.809-5.179v-1.092h0.502v1.092c0,2.268,1.991,4.165,3.872,4.886L32.041,114.796z M35.949,121.375v0.48
		h-9.427v-3.135h8.319v-2.013h-8.366v-0.48h8.878v2.974H27.04v2.174H35.949z M35.338,115.407h-0.533v-7.53h0.533V115.407z"/>
	<path fill="#FFFFFF" d="M41.421,112.287c0,2.556,2.304,5.179,4.039,6.047l-0.34,0.418c-1.494-0.82-3.313-2.733-3.956-4.938
		c-0.596,2.268-2.377,4.279-3.893,5.147l-0.35-0.434c1.735-0.92,4.003-3.617,4.003-6.24v-3.041h0.497V112.287z M48.323,107.877
		v14.203H47.79v-14.203H48.323z"/>
	<path fill="#FFFFFF" d="M56.977,109.021c0,3.475-2.811,6.208-6.72,7.572l-0.225-0.46c3.538-1.224,6.156-3.591,6.365-6.632H50.56
		v-0.48H56.977z M52.749,121.213h8.763v0.48h-9.296v-4.295h0.533V121.213z M63.059,112.543v0.481h-2.315v5.45h-0.533v-10.598h0.533
		v4.666H63.059z"/>
	<path fill="#FFFFFF" d="M78.496,119.624v0.481H65.615v-0.481h6.145v-4.327h-4.378v-6.113h9.348v0.48h-8.815v5.147h8.978v0.485
		h-4.604v4.327H78.496z"/>
	<path fill="#FFFFFF" d="M86.418,115.841c-1.594-0.596-3.088-1.865-3.621-3.522c-0.513,1.829-2.091,3.167-3.731,3.815l-0.287-0.439
		c1.896-0.674,3.763-2.445,3.763-4.682v-0.638h-3.522v-0.486h3.522v-2.09h0.527v2.09h3.475v0.486h-3.49v0.638
		c0,2.048,1.787,3.752,3.668,4.395L86.418,115.841z M80.497,117.398h8.978v4.703h-0.533v-4.218h-8.444V117.398z M91.79,112.444
		h-2.315v4.055h-0.533v-8.622h0.533v4.086h2.315V112.444z"/>
	<path fill="#FFFFFF" d="M104.498,119.603v0.48H91.601v-0.48h6.161v-4.023h-4.474v-6.387h9.475v6.387H98.29v4.023H104.498z
		 M93.786,115.13h8.48v-5.481h-8.48V115.13z"/>
	<path fill="#FFFFFF" d="M117.5,119.457v0.486h-12.887v-0.486H117.5z M115.889,115.438h-9.505v-6.099h9.328v0.481h-8.795v5.131
		h8.972V115.438z"/>
</g>
</svg>
