<?xml version="1.0" encoding="utf-8"?>
<!-- Generator: Adobe Illustrator 16.0.0, SVG Export Plug-In . SVG Version: 6.00 Build 0)  -->
<!DOCTYPE svg PUBLIC "-//W3C//DTD SVG 1.1//EN" "http://www.w3.org/Graphics/SVG/1.1/DTD/svg11.dtd">
<svg version="1.1" id="Layer_1" xmlns="http://www.w3.org/2000/svg" xmlns:xlink="http://www.w3.org/1999/xlink" x="0px" y="0px"
	 width="70.871px" height="70.871px" viewBox="0 0 70.871 70.871" enable-background="new 0 0 70.871 70.871" xml:space="preserve">
<g>
	<path fill="#212121" d="M6.955,34.44c1.129,0.385,2.064,0.552,2.857,0.552h14.96v3.025h-7.227v3.748h-3.362v-3.748H6.955V34.44z
		 M8.396,24.45h5.787c-0.048-1.344-0.36-1.896-0.36-1.896h3.723v1.896h5.788v3.026H20.93c0.313,0.625,0.48,1.321,0.48,2.042
		c0,2.833-2.498,5.09-5.571,5.09c-3.074,0-5.571-2.257-5.571-5.09c0-0.721,0.168-1.417,0.456-2.042H8.396V24.45z M15.84,31.655
		c1.536,0,2.401-0.937,2.401-2.114c0-1.153-0.888-2.041-2.401-2.041c-1.513,0-2.401,0.888-2.401,2.041
		C13.438,30.718,14.327,31.655,15.84,31.655z"/>
	<path fill="#212121" d="M25.932,27.679c0-1.278-0.666-2.796-0.666-2.796h11.263v3.488h-6.87v6.151h7.376v3.49H25.932V27.679z
		 M39.725,28.451c0-1.917-0.692-3.169-0.692-3.169h4.42v4.5h2.796v3.487h-2.796v4.447h-3.728V28.451z"/>
	<path fill="#212121" d="M47.298,26.114c0-1.046-0.545-2.288-0.545-2.288h9.213v2.854h-5.619v4.095h6.033v2.854h-9.082V26.114z
		 M52.219,35.437h9.412v7.124h-3.052v-4.248h-6.36V35.437z M58.579,26.919c0-1.568-0.565-2.244-0.565-2.244h3.617v2.963h2.286v2.854
		h-2.286v3.486h-3.052V26.919z"/>
	<path fill="#212121" d="M18.046,46.457c0.596,0.203,1.089,0.293,1.508,0.293h7.896v1.596h-9.405V46.457z M23.636,41.996
		c0,1.648,2.04,2.637,3.358,2.953l-0.95,1.18c-1.116-0.178-2.713-0.912-3.296-1.736c-0.57,0.824-2.167,1.545-3.283,1.736
		l-0.951-1.18c1.318-0.316,3.359-1.305,3.359-2.953v-0.303c-0.038-0.457-0.317-1.053-0.317-1.053h2.079V41.996z"/>
	<path fill="#212121" d="M28.11,43.162c0-0.609-0.316-1.332-0.316-1.332h4.741v1.662h-2.65v0.785h2.293v1.66h-2.293v0.748h2.827
		v1.66H28.11V43.162z M32.521,44.277h1.306v-0.596c0-0.912-0.33-1.508-0.33-1.508h2.105v5.918h-1.775v-2.154h-1.306V44.277z
		 M36.072,43.682c0-0.912-0.331-1.508-0.331-1.508h2.104v5.918h-1.772V43.682z"/>
	<path fill="#212121" d="M40.647,42.008c-0.052-0.695-0.191-1.139-0.191-1.139h1.978v1.127c1.357,0.355,2.358,1.521,2.358,3.004
		c0,1.789-1.457,3.119-3.245,3.119c-1.787,0-3.246-1.33-3.246-3.119C38.301,43.531,39.29,42.363,40.647,42.008z M41.547,46.521
		c0.837,0,1.534-0.686,1.534-1.521s-0.697-1.521-1.534-1.521c-0.838,0-1.534,0.686-1.534,1.521S40.709,46.521,41.547,46.521z
		 M45.717,43.367c0-0.914-0.33-1.51-0.33-1.51h2.104v5.918h-1.774V43.367z"/>
	<path fill="#212121" d="M55.491,46.021h-1.889c0.278,0.178,0.571,0.33,0.876,0.471l-1.154,1.076
		c-0.786-0.305-1.788-1.064-2.028-1.482c-0.483,0.697-1.749,1.355-2.535,1.521l-0.938-1.152c1.141-0.383,2.586-1.27,2.586-3.045
		v-1.102c-0.076-0.711-0.33-1.016-0.33-1.016h2.105v2.117c0,1.18,0.469,1.889,1.141,2.41v-1.457h2.167v-0.381h-1.952V42.32h1.852
		c-0.089-0.416-0.229-0.66-0.229-0.66h2.104v6.188h-1.774V46.021z M52.284,48.115h1.774v2.293h3.194v1.662h-4.969V48.115z"/>
</g>
</svg>
