<?xml version="1.0" encoding="utf-8"?>
<!-- Generator: Adobe Illustrator 16.0.0, SVG Export Plug-In . SVG Version: 6.00 Build 0)  -->
<!DOCTYPE svg PUBLIC "-//W3C//DTD SVG 1.1//EN" "http://www.w3.org/Graphics/SVG/1.1/DTD/svg11.dtd">
<svg version="1.1" id="Layer_1" xmlns="http://www.w3.org/2000/svg" xmlns:xlink="http://www.w3.org/1999/xlink" x="0px" y="0px"
	 width="70.871px" height="70.871px" viewBox="0 0 70.871 70.871" enable-background="new 0 0 70.871 70.871" xml:space="preserve">
<g>
	<path fill="#FFFFFF" d="M25.663,35.736v0.368H15.84v-0.368h4.437V33.43h0.409v2.307H25.663z M24.454,39.345
		c0,1.209-1.441,1.938-3.72,1.938c-2.294,0-3.724-0.729-3.724-1.938c0-1.206,1.43-1.931,3.724-1.931
		C23.012,37.414,24.454,38.139,24.454,39.345z M23.949,31.432h-6.888v-0.368h7.272v0.949c0,0.901,0,1.738-0.296,2.863l-0.384-0.064
		c0.296-1.109,0.296-1.938,0.296-2.799V31.432z M24.049,39.345c0-0.938-1.37-1.578-3.316-1.578c-1.962,0-3.315,0.641-3.315,1.578
		c0,0.937,1.354,1.577,3.315,1.577C22.68,40.922,24.049,40.281,24.049,39.345z"/>
	<path fill="#FFFFFF" d="M29.351,34.171c0,1.922,1.766,3.796,3.132,4.425l-0.256,0.332c-1.186-0.604-2.603-1.994-3.071-3.648
		c-0.469,1.686-1.862,3.255-3.008,3.905l-0.26-0.329c1.31-0.692,3.072-2.774,3.072-4.685V32H26.16v-0.368h6.051V32h-2.859V34.171z
		 M34.565,30.446v10.885h-0.405V30.446H34.565z"/>
	<path fill="#FFFFFF" d="M39.042,33.826c0,1.882,1.69,3.868,3.02,4.549l-0.269,0.32c-1.148-0.641-2.479-2.109-2.935-3.748
		c-0.433,1.722-1.763,3.292-2.896,3.968l-0.272-0.32c1.329-0.725,2.972-2.811,2.972-4.77v-2.331h0.38V33.826z M45.958,35.452H43.96
		v5.879h-0.404V30.446h0.404v4.638h1.998V35.452z"/>
	<path fill="#FFFFFF" d="M52.237,32.249H45.79V31.88h3.02v-1.545h0.404v1.545h3.023V32.249z M49.006,36.758
		c-1.542,0-2.539-0.729-2.539-1.898c0-1.157,0.997-1.874,2.539-1.874c1.529,0,2.526,0.717,2.526,1.874
		C51.532,36.029,50.535,36.758,49.006,36.758z M49.006,36.401c1.281,0,2.146-0.641,2.146-1.542c0-0.889-0.865-1.514-2.146-1.514
		c-1.294,0-2.159,0.625-2.159,1.514C46.847,35.761,47.712,36.401,49.006,36.401z M54.171,39.457c0,1.161-1.281,1.826-3.428,1.826
		c-2.13,0-3.411-0.665-3.411-1.826c0-1.157,1.281-1.822,3.411-1.822C52.89,37.635,54.171,38.3,54.171,39.457z M53.775,39.457
		c0-0.897-1.206-1.466-3.032-1.466c-1.81,0-3.02,0.568-3.02,1.466c0,0.9,1.21,1.465,3.02,1.465
		C52.569,40.922,53.775,40.357,53.775,39.457z M55.821,33.726v0.373h-1.774v3.46h-0.404v-7.112h0.404v3.28H55.821z"/>
</g>
</svg>
