<?xml version="1.0" encoding="utf-8"?>
<!-- Generator: Adobe Illustrator 16.0.0, SVG Export Plug-In . SVG Version: 6.00 Build 0)  -->
<!DOCTYPE svg PUBLIC "-//W3C//DTD SVG 1.1//EN" "http://www.w3.org/Graphics/SVG/1.1/DTD/svg11.dtd">
<svg version="1.1" id="Layer_1" xmlns="http://www.w3.org/2000/svg" xmlns:xlink="http://www.w3.org/1999/xlink" x="0px" y="0px"
	 width="70.871px" height="25.51px" viewBox="0 0 70.871 25.51" enable-background="new 0 0 70.871 25.51" xml:space="preserve">
<g>
	<path fill="#FFFFFF" d="M24.054,4.813c-1.642,0-2.972,1.331-2.972,2.972c0,0.444,0.098,0.866,0.272,1.243l2.7,5.296l2.7-5.296
		c0.174-0.377,0.272-0.799,0.272-1.243C27.026,6.144,25.696,4.813,24.054,4.813z M24.054,9.568c-0.985,0-1.783-0.799-1.783-1.784
		c0-0.984,0.798-1.783,1.783-1.783s1.784,0.799,1.784,1.783C25.838,8.769,25.039,9.568,24.054,9.568z M24.944,15.195l1.082,2.163
		l-2.744,1.371l-0.919-4.601l0.154-0.153l0.016-0.018l-0.566-1.114l-0.29,0.29l-3.567-2.377l-3.566,2.377l-2.377-2.377L8.6,17.89
		l4.755,2.377l4.755-2.377l4.756,2.377l4.755-2.377l-2.006-4.011L24.944,15.195z M12.937,18.729l-2.742-1.371l2.297-4.595
		l1.212,1.212l0.154,0.153L12.937,18.729z M17.516,16.858l-3.325,1.662l0.859-4.295l0.153-0.102l2.313-1.542V16.858z M18.705,16.858
		v-4.276l2.313,1.542l0.152,0.102l0.859,4.295L18.705,16.858z"/>
</g>
<g>
	<path fill="#FFFFFF" d="M43.763,11.857c0.384-0.016,0.777-0.047,1.146-0.106l0.016,0.104c-0.821,0.15-1.71,0.15-2.36,0.15
		l-0.029-0.127c0.324,0,0.703,0,1.097-0.016v-0.775h0.132V11.857z M42.679,11.112c0.478-0.164,0.952-0.59,0.952-1.157V9.911h-0.893
		v-0.12h0.893V9.305h0.132v0.487h0.914v0.12h-0.918v0.044c0,0.55,0.486,0.953,0.966,1.113l-0.067,0.107
		c-0.415-0.151-0.821-0.458-0.962-0.893c-0.132,0.459-0.531,0.782-0.949,0.937L42.679,11.112z M45.308,9.285v3.522h-0.133V9.285
		H45.308z"/>
	<path fill="#FFFFFF" d="M47.845,11.036c-0.542,0.103-0.974,0.131-1.664,0.131h-0.254V9.612h1.534v0.12h-1.403v1.312h0.123
		c0.682,0,1.117-0.024,1.641-0.128L47.845,11.036z M46.445,12.591h2.173v0.121h-2.306v-1.117h0.133V12.591z M49.005,10.418v0.12
		h-0.577v1.3h-0.133V9.281h0.133v1.137H49.005z"/>
	<path fill="#FFFFFF" d="M51.231,11.423c-0.758,0.14-1.624,0.151-2.247,0.151l-0.023-0.127c0.304,0,0.666-0.005,1.045-0.021v-0.334
		c-0.435-0.021-0.718-0.22-0.718-0.543c0-0.331,0.311-0.534,0.782-0.534c0.471,0,0.781,0.203,0.781,0.534
		c0,0.323-0.278,0.522-0.714,0.543v0.331c0.362-0.02,0.742-0.052,1.08-0.108L51.231,11.423z M51.095,9.812h-2.05v-0.12h0.961V9.273
		h0.132v0.418h0.957V9.812z M50.07,10.977c0.394,0,0.658-0.172,0.658-0.427c0-0.248-0.265-0.423-0.658-0.423
		c-0.396,0-0.658,0.175-0.658,0.423C49.412,10.805,49.675,10.977,50.07,10.977z M49.65,12.591h2.099v0.121H49.52v-0.855h0.131
		V12.591z M52.208,10.593v0.12h-0.591v1.333h-0.132V9.285h0.132v1.309H52.208z"/>
	<path fill="#FFFFFF" d="M55.359,11.032v0.12h-3.179v-0.12H55.359z M55.093,10.657c-0.446-0.087-1.129-0.395-1.319-0.857
		c-0.185,0.474-0.865,0.77-1.324,0.857l-0.052-0.111c0.461-0.072,1.308-0.447,1.308-0.993V9.341h0.136v0.211
		c0,0.531,0.853,0.921,1.304,0.993L55.093,10.657z M54.96,12.185c0,0.39-0.441,0.61-1.187,0.61c-0.746,0-1.189-0.22-1.189-0.61
		s0.443-0.61,1.189-0.61C54.519,11.574,54.96,11.794,54.96,12.185z M54.829,12.185c0-0.303-0.418-0.494-1.056-0.494
		c-0.635,0-1.058,0.19-1.058,0.494s0.423,0.494,1.058,0.494C54.411,12.678,54.829,12.488,54.829,12.185z"/>
	<path fill="#FFFFFF" d="M57.088,10.15c-0.236,0.571-0.825,1.009-1.553,1.248l-0.067-0.111c0.874-0.279,1.545-0.845,1.592-1.59
		h-1.421v-0.12h1.565c0,0.16-0.024,0.311-0.072,0.455h0.984V9.29h0.133v2.189h-0.133v-0.594H57.04v-0.12h1.076V10.15H57.088z
		 M58.264,12.152c0,0.404-0.43,0.639-1.136,0.639c-0.71,0-1.142-0.234-1.142-0.639c0-0.402,0.432-0.638,1.142-0.638
		C57.834,11.515,58.264,11.75,58.264,12.152z M58.137,12.152c0-0.315-0.406-0.522-1.009-0.522c-0.606,0-1.014,0.208-1.014,0.522
		c0,0.316,0.407,0.523,1.014,0.523C57.73,12.676,58.137,12.468,58.137,12.152z"/>
	<path fill="#FFFFFF" d="M61.822,12.204v0.12h-3.198v-0.12h1.526v-0.793h-1.092v-0.989h2.201V9.7h-2.213V9.58h2.34v0.961h-2.2v0.75
		h2.286v0.119h-1.189v0.793H61.822z"/>
	<path fill="#A0A09F" d="M44.261,16.853c-0.131,0.16-0.273,0.284-0.429,0.371c-0.154,0.087-0.328,0.131-0.517,0.131
		c-0.123,0-0.234-0.019-0.337-0.058c-0.102-0.038-0.19-0.09-0.266-0.157c-0.073-0.066-0.132-0.145-0.173-0.235
		c-0.042-0.089-0.063-0.187-0.063-0.29v-0.008c0-0.108,0.021-0.206,0.06-0.291c0.038-0.084,0.091-0.161,0.158-0.226
		c0.067-0.067,0.147-0.126,0.239-0.178c0.093-0.052,0.19-0.1,0.295-0.146c-0.13-0.135-0.221-0.254-0.272-0.358
		c-0.055-0.105-0.08-0.212-0.08-0.317v-0.008c0-0.077,0.016-0.15,0.045-0.224c0.031-0.071,0.074-0.135,0.132-0.19
		s0.126-0.101,0.208-0.136c0.081-0.033,0.174-0.052,0.277-0.052c0.093,0,0.179,0.017,0.255,0.049
		c0.078,0.031,0.143,0.074,0.198,0.127c0.055,0.054,0.098,0.114,0.128,0.185c0.03,0.071,0.046,0.143,0.046,0.218v0.008
		c0,0.159-0.056,0.295-0.167,0.409s-0.296,0.223-0.551,0.326l0.807,0.855c0.073-0.1,0.138-0.21,0.2-0.332
		c0.061-0.12,0.12-0.255,0.179-0.404l0.119,0.045c-0.062,0.151-0.125,0.292-0.193,0.425c-0.067,0.131-0.141,0.251-0.22,0.36
		l0.496,0.524l-0.099,0.087L44.261,16.853z M43.314,17.231c0.166,0,0.321-0.043,0.465-0.129c0.145-0.084,0.275-0.198,0.395-0.342
		L43.31,15.85c-0.102,0.041-0.193,0.085-0.277,0.134c-0.086,0.049-0.158,0.104-0.221,0.163c-0.06,0.06-0.108,0.127-0.145,0.201
		c-0.035,0.073-0.054,0.158-0.054,0.25v0.009c0,0.084,0.018,0.165,0.051,0.24c0.032,0.076,0.08,0.143,0.143,0.199
		s0.138,0.103,0.223,0.135C43.115,17.214,43.211,17.231,43.314,17.231z M43.361,15.719c0.242-0.098,0.414-0.196,0.516-0.298
		c0.103-0.101,0.152-0.218,0.152-0.351v-0.008c0-0.062-0.01-0.119-0.034-0.175c-0.025-0.056-0.059-0.106-0.103-0.149
		c-0.044-0.044-0.096-0.079-0.157-0.104c-0.061-0.024-0.128-0.038-0.203-0.038c-0.079,0-0.15,0.014-0.217,0.039
		c-0.064,0.027-0.12,0.063-0.164,0.109c-0.046,0.044-0.08,0.096-0.104,0.152c-0.023,0.058-0.036,0.115-0.036,0.177v0.008
		c0,0.046,0.006,0.091,0.018,0.137c0.012,0.047,0.031,0.096,0.058,0.146c0.026,0.052,0.062,0.106,0.108,0.163
		C43.239,15.587,43.297,15.649,43.361,15.719z"/>
	<path fill="#FFFFFF" d="M46.356,15.266c0,0.622,0.571,1.229,1.014,1.431l-0.083,0.108c-0.384-0.196-0.842-0.646-0.992-1.182
		c-0.153,0.547-0.604,1.054-0.975,1.265l-0.083-0.107c0.423-0.225,0.992-0.897,0.992-1.515v-0.702h-0.904v-0.12h1.957v0.12h-0.926
		V15.266z M48.044,14.061v3.521h-0.131v-3.521H48.044z"/>
	<path fill="#FFFFFF" d="M49.544,14.667h0.97v0.119h-2.102v-0.119h1.001v-0.578h0.131V14.667z M50.306,15.951
		c0,0.463-0.342,0.777-0.821,0.777c-0.474,0-0.817-0.314-0.817-0.777c0-0.459,0.344-0.778,0.817-0.778
		C49.964,15.173,50.306,15.492,50.306,15.951z M50.183,15.951c0-0.367-0.295-0.658-0.698-0.658c-0.398,0-0.694,0.291-0.694,0.658
		c0,0.366,0.296,0.657,0.694,0.657C49.888,16.608,50.183,16.317,50.183,15.951z M51.73,15.704h-0.647v1.878h-0.131v-3.521h0.131
		v1.523h0.647V15.704z"/>
	<path fill="#FFFFFF" d="M53.67,15.804c-0.415-0.123-0.835-0.396-0.978-0.773c-0.132,0.41-0.539,0.704-0.957,0.845l-0.063-0.108
		c0.466-0.144,0.956-0.521,0.956-1.021v-0.155H51.76v-0.119h0.868v-0.435h0.132v0.435h0.862v0.119h-0.866v0.155
		c0,0.471,0.507,0.817,0.979,0.95L53.67,15.804z M54.659,17.406v0.119h-2.353v-0.78h2.061v-0.487h-2.073v-0.119h2.201v0.726h-2.062
		v0.542H54.659z M54.364,14.993v-0.933h0.131v1.866h-0.131v-0.814h-0.861v-0.119H54.364z"/>
	<path fill="#FFFFFF" d="M58.073,16.947v0.119h-3.198v-0.119h1.528v-1.08h-1.098v-1.476h0.131v1.356h2.247v0.119h-1.149v1.08H58.073
		z"/>
	<path fill="#FFFFFF" d="M60.037,16.074c-0.395-0.171-0.778-0.522-0.914-0.962c-0.128,0.479-0.511,0.858-0.917,1.042l-0.071-0.111
		c0.466-0.195,0.929-0.702,0.929-1.285v-0.486h0.123v0.507c0,0.534,0.464,1.006,0.923,1.188L60.037,16.074z M61.037,17.367v0.119
		h-2.28V16.41h0.132v0.957H61.037z M60.814,15.098h-0.902v-0.125h0.902v-0.908h0.132v2.668h-0.132V15.098z"/>
	<path fill="#FFFFFF" d="M64.52,16.972v0.119h-3.193v-0.119h1.523v-1.072h-1.085v-1.516h2.317v0.12h-2.185v1.274h2.225v0.121H62.98
		v1.072H64.52z"/>
</g>
</svg>
