<?xml version="1.0" encoding="utf-8"?>
<!-- Generator: Adobe Illustrator 16.0.0, SVG Export Plug-In . SVG Version: 6.00 Build 0)  -->
<!DOCTYPE svg PUBLIC "-//W3C//DTD SVG 1.1//EN" "http://www.w3.org/Graphics/SVG/1.1/DTD/svg11.dtd">
<svg version="1.1" id="Layer_1" xmlns="http://www.w3.org/2000/svg" xmlns:xlink="http://www.w3.org/1999/xlink" x="0px" y="0px"
	 width="70.871px" height="70.871px" viewBox="0 0 70.871 70.871" enable-background="new 0 0 70.871 70.871" xml:space="preserve">
<g>
	<path fill="#FFFFFF" d="M30.36,30.174h-4.705v3.414h-0.402v-3.414h-4.669v-0.369h9.776V30.174z M29.691,24.515h-8.546V24.15h4.109
		v-1.453h0.402v1.453h4.036V24.515z M25.447,25.343c2.062,0,3.293,0.633,3.293,1.742c0,1.101-1.231,1.735-3.293,1.735
		c-2.059,0-3.291-0.634-3.291-1.735C22.156,25.976,23.388,25.343,25.447,25.343z M25.447,25.683c-1.742,0-2.875,0.55-2.875,1.402
		c0,0.844,1.133,1.394,2.875,1.394c1.745,0,2.877-0.55,2.877-1.394C28.325,26.233,27.192,25.683,25.447,25.683z"/>
	<path fill="#FFFFFF" d="M31.754,30.428c2.145,0,3.499-0.087,5.132-0.404l0.062,0.38c-1.683,0.317-3.023,0.404-5.194,0.404h-0.792
		v-6.899h4.96v0.365h-4.559v6.154H31.754z M40.53,27.695h-1.974v5.893h-0.402V22.824h0.402v4.507h1.974V27.695z"/>
	<path fill="#FFFFFF" d="M46.748,27.719c-1.655,0.321-2.97,0.404-5.081,0.404h-0.78v-4.535h4.693v0.369h-4.291v3.79h0.378
		c2.083,0,3.41-0.075,5.01-0.392L46.748,27.719z M41.742,29.842h6.788v3.754h-0.403v-3.39h-6.385V29.842z M50.285,26.103H48.53
		v3.081h-0.403v-6.36h0.403v2.911h1.755V26.103z"/>
	<path fill="#FFFFFF" d="M23.522,40.613c0,2.044,1.048,3.755,2.474,4.483l-0.268,0.329c-1.135-0.634-2.023-1.818-2.39-3.339
		c-0.34,1.73-1.267,2.998-2.473,3.691l-0.281-0.317c1.476-0.775,2.561-2.546,2.561-4.848V39.22h-2.402v-0.364h5.095v0.364h-2.315
		V40.613z M29.618,37.406V48.17h-0.402v-5.813h-1.977v5.216h-0.402v-9.873h0.402v4.265h1.977v-4.558H29.618z"/>
	<path fill="#FFFFFF" d="M36.63,42.649c-1.23-0.526-2.462-1.576-2.89-2.962c-0.402,1.473-1.62,2.629-2.851,3.18l-0.232-0.329
		c1.426-0.586,2.889-2.11,2.889-3.929v-0.827h0.378v0.827c0,1.719,1.511,3.161,2.937,3.707L36.63,42.649z M39.592,47.632v0.364
		h-7.143v-2.377h6.303v-1.521h-6.34v-0.364h6.731v2.254h-6.303v1.644H39.592z M39.129,43.108h-0.402v-5.702h0.402V43.108z"/>
	<path fill="#FFFFFF" d="M45.933,39.243h-5.693v-0.364h2.672v-1.414h0.399v1.414h2.622V39.243z M43.093,43.624
		c-1.351,0-2.255-0.697-2.255-1.807c0-1.108,0.904-1.806,2.255-1.806c1.366,0,2.27,0.697,2.27,1.806
		C45.362,42.927,44.459,43.624,43.093,43.624z M43.093,43.268c1.137,0,1.89-0.61,1.89-1.45c0-0.839-0.753-1.449-1.89-1.449
		c-1.12,0-1.877,0.61-1.877,1.449C41.216,42.657,41.973,43.268,43.093,43.268z M49.322,46.341c0,1.132-1.291,1.782-3.484,1.782
		c-2.187,0-3.478-0.65-3.478-1.782c0-1.148,1.291-1.79,3.478-1.79C48.031,44.551,49.322,45.192,49.322,46.341z M48.935,46.341
		c0-0.888-1.235-1.438-3.097-1.438c-1.854,0-3.086,0.551-3.086,1.438c0,0.879,1.232,1.438,3.086,1.438
		C47.699,47.778,48.935,47.22,48.935,46.341z M46.883,43.865h-0.403v-6.254h0.403v2.986h1.977v-3.191h0.4v6.875h-0.4v-3.319h-1.977
		V43.865z"/>
</g>
</svg>
