<?xml version="1.0" encoding="utf-8"?>
<!-- Generator: Adobe Illustrator 16.0.0, SVG Export Plug-In . SVG Version: 6.00 Build 0)  -->
<!DOCTYPE svg PUBLIC "-//W3C//DTD SVG 1.1//EN" "http://www.w3.org/Graphics/SVG/1.1/DTD/svg11.dtd">
<svg version="1.1" id="Layer_1" xmlns="http://www.w3.org/2000/svg" xmlns:xlink="http://www.w3.org/1999/xlink" x="0px" y="0px"
	 width="141.73px" height="141.73px" viewBox="0 0 141.73 141.73" enable-background="new 0 0 141.73 141.73" xml:space="preserve">
<g>
	<path fill="#FFFFFF" d="M62.02,53.334c-0.924,0.024-1.674,0.781-1.643,1.669c0.026,0.898,0.81,1.656,1.698,1.648
		c0.882-0.01,1.624-0.794,1.616-1.708C63.681,54.013,62.949,53.305,62.02,53.334z"/>
	<path fill="#FFFFFF" d="M74.346,55.512c-2.316-0.044-4.641-0.049-6.96,0c-0.149,0.008-0.292,0.13-0.436,0.28
		c-0.204,0.209-0.165,0.524,0.097,0.682c0.183,0.104,0.363,0.193,0.512,0.201c1.133,0.06,2.175,0.024,3.533,0.026
		c0.679,0,2.178,0.006,3.343,0c0.423,0,0.846-0.047,0.746-0.603C75.14,55.857,74.618,55.522,74.346,55.512z"/>
	<path fill="#FFFFFF" d="M65.966,36.801c1.625,0.008,3.251,0,4.878,0.003c1.653,0,3.304,0,4.964,0c0.658,0,1.191-0.235,1.191-0.961
		c0-0.729-0.533-0.948-1.191-0.948c-3.282,0.003-6.563,0.011-9.843,0c-0.666,0-1.162,0.204-1.256,0.912
		C64.629,36.381,65.172,36.796,65.966,36.801z"/>
	<path fill="#FFFFFF" d="M67.363,54.58c1.157,0.063,2.321,0.031,3.483,0.031s2.327,0.031,3.484-0.031
		c0.151-0.005,0.292-0.097,0.438-0.217c0.209-0.172,0.209-0.473,0-0.674c-0.151-0.144-0.298-0.259-0.449-0.264
		c-2.319-0.05-4.646-0.05-6.97-0.003c-0.144,0.003-0.279,0.115-0.42,0.248c-0.196,0.193-0.19,0.491,0.008,0.677
		C67.078,54.47,67.219,54.572,67.363,54.58z"/>
	<path fill="#FFFFFF" d="M89.221,29.969c-10.138-10.138-26.58-10.138-36.72,0c-10.138,10.143-10.138,26.579,0,36.728l18.361,18.354
		l18.359-18.354C99.364,56.549,99.364,40.112,89.221,29.969z M83.131,58.124c-0.01,0.757-0.553,2.22-1.577,2.232
		c-1.065,0.013-0.679,2.617-0.679,4.191c0,1.262-2.393,2.306-3.614,1.256c-0.574-0.488-1.253-1.175-2-1.175h-9.188
		c-0.75,0-1.426,0.7-2.034,1.139c-1.165,0.836-3.421,0.486-3.421-1.392c0-0.922,0.246-3.753-0.768-3.737
		c-1.071,0.023-1.303-1.559-1.303-2.648c-0.002-6.824-0.016-13.648,0.013-20.469c0.005-1.757,1.355-3.104,3.1-3.306
		c6.116-0.703,12.227-0.64,18.338-0.003c1.796,0.183,3.165,1.551,3.165,3.33C83.183,44.338,83.204,51.331,83.131,58.124z"/>
	<path fill="#FFFFFF" d="M79.956,37.537c-3.019-0.005-6.035,0-9.057-0.005c-3.048,0-6.096-0.003-9.146,0.005
		c-1.348,0-1.857,0.497-1.859,1.831c-0.008,2.23,0,4.468,0,6.701c0.002,1.525,0.457,1.998,1.958,1.992
		c6.012,0,12.018-0.002,18.03-0.01c1.499-0.008,1.964-0.47,1.975-1.995c0.01-2.207,0.01-4.414-0.006-6.618
		C81.842,38.054,81.313,37.537,79.956,37.537z"/>
	<path fill="#FFFFFF" d="M79.694,53.334c-0.939-0.01-1.66,0.692-1.666,1.622c-0.005,0.917,0.721,1.669,1.635,1.685
		c0.878,0.018,1.672-0.752,1.672-1.648C81.344,54.073,80.619,53.342,79.694,53.334z"/>
</g>
<g>
	<path fill="#FFFFFF" d="M31.816,114.79c-1.622-0.694-3.246-2.078-3.81-3.906c-0.53,1.942-2.137,3.468-3.761,4.188l-0.306-0.428
		c1.88-0.773,3.81-2.784,3.81-5.182v-1.092h0.499v1.092c0,2.267,1.993,4.168,3.873,4.889L31.816,114.79z M35.722,121.361v0.48h-9.42
		v-3.135h8.313v-2.005h-8.362v-0.48h8.876v2.967h-8.313v2.173H35.722z M35.111,115.396h-0.53v-7.521h0.53V115.396z"/>
	<path fill="#FFFFFF" d="M41.193,112.278c0,2.554,2.301,5.176,4.038,6.043l-0.339,0.418c-1.494-0.815-3.312-2.727-3.954-4.931
		c-0.595,2.267-2.379,4.272-3.891,5.139l-0.353-0.428c1.734-0.919,4.001-3.619,4.001-6.241v-3.034h0.499V112.278z M48.09,107.875
		v14.196h-0.53v-14.196H48.09z"/>
	<path fill="#FFFFFF" d="M56.742,109.013c0,3.474-2.813,6.205-6.719,7.573l-0.225-0.465c3.536-1.222,6.155-3.588,6.364-6.628h-5.834
		v-0.48H56.742z M52.514,121.204h8.761v0.48h-9.292v-4.293h0.53V121.204z M62.819,112.534v0.48h-2.314v5.452h-0.53v-10.592h0.53
		v4.659H62.819z"/>
	<path fill="#FFFFFF" d="M75.052,115.719c-1.528,0.272-3.118,0.402-4.646,0.502v5.4h-0.53v-5.39
		c-1.625,0.083-3.167,0.099-4.502,0.099l-0.112-0.517c2.797,0,6.511-0.047,9.744-0.527L75.052,115.719z M66.548,111.442
		c0-1.687,1.447-2.794,3.521-2.794c2.058,0,3.504,1.107,3.504,2.794s-1.446,2.815-3.504,2.815
		C67.995,114.258,66.548,113.129,66.548,111.442z M67.063,111.442c0,1.332,1.253,2.335,3.006,2.335c1.737,0,2.99-1.003,2.99-2.335
		c0-1.321-1.253-2.329-2.99-2.329C68.316,109.113,67.063,110.121,67.063,111.442z M76.76,107.89v14.196h-0.533V107.89H76.76z"/>
	<path fill="#FFFFFF" d="M83.272,112.664c0,2.717,2.104,4.999,3.985,5.855l-0.355,0.428c-1.572-0.804-3.259-2.475-3.87-4.643
		c-0.564,2.282-2.251,4.068-3.828,4.92l-0.355-0.418c1.87-0.914,3.928-3.327,3.928-6.143v-1.687h-3.651v-0.48h3.631v-2.434h0.532
		v2.434h3.572v0.48h-3.588V112.664z M89.816,107.89v14.196h-0.548V107.89H89.816z"/>
	<path fill="#FFFFFF" d="M104.242,119.595v0.48H91.347v-0.48h6.157v-4.021h-4.471v-6.383h9.475v6.383h-4.471v4.021H104.242z
		 M93.535,115.125h8.472v-5.484h-8.472V115.125z"/>
	<path fill="#FFFFFF" d="M117.232,119.449v0.48h-12.875v-0.48H117.232z M115.623,115.427h-9.5v-6.09h9.323v0.48h-8.791v5.129h8.968
		V115.427z"/>
</g>
</svg>
