<?xml version="1.0" encoding="iso-8859-1"?>
<!-- Generator: Adobe Illustrator 18.1.1, SVG Export Plug-In . SVG Version: 6.00 Build 0)  -->
<svg version="1.1" id="Capa_1" xmlns="http://www.w3.org/2000/svg" xmlns:xlink="http://www.w3.org/1999/xlink" x="0px" y="0px"
	 viewBox="0 0 47.798 47.798" style="enable-background:new 0 0 47.798 47.798;" xml:space="preserve">
<g>
	<path style="fill:#030104;" d="M37.326,0.734c-8.983-0.932-17.965-1.027-26.949,0.008C7.808,1.039,5.83,3.016,5.819,5.597
		c-0.042,10.03-0.024,20.059-0.016,30.088c0.001,1.598,0.336,3.922,1.91,3.893c1.491-0.027,1.133,4.133,1.133,5.488
		c0,2.758,3.309,3.273,5.023,2.041c0.897-0.645,1.888-1.666,2.993-1.666h13.5c1.105,0,2.1,1.006,2.939,1.725
		c1.801,1.542,5.311,0.005,5.311-1.85c0-2.309-0.563-6.139,1-6.156c1.508-0.017,2.306-2.166,2.318-3.279
		c0.106-9.986,0.079-20.264,0.048-30.25C41.969,3.016,39.968,1.008,37.326,0.734z M14.855,3.079
		c0.143-1.037,0.872-1.345,1.848-1.343c4.819,0.016,9.64,0.01,14.459,0.003c0.978-0.002,1.758,0.326,1.756,1.397
		c-0.002,1.063-0.789,1.41-1.757,1.41c-2.431-0.002-4.862-0.002-7.294-0.003c-2.388-0.001-4.776,0.009-7.165-0.005
		C15.534,4.531,14.738,3.922,14.855,3.079z M10.983,33.711c-1.302,0.014-2.456-1.104-2.496-2.419
		c-0.042-1.307,1.054-2.421,2.413-2.456c1.368-0.035,2.443,1.002,2.458,2.37C13.373,32.547,12.284,33.697,10.983,33.711z
		 M24.238,33.791c-2-0.008-3.533,0.044-5.191-0.043c-0.22-0.011-0.489-0.14-0.755-0.297c-0.389-0.23-0.443-0.689-0.143-0.999
		c0.212-0.22,0.425-0.402,0.643-0.407c3.408-0.077,6.82-0.071,10.229-0.001c0.4,0.008,1.165,0.501,1.229,0.856
		c0.147,0.819-0.476,0.888-1.102,0.889C27.442,33.793,25.238,33.791,24.238,33.791z M18.121,29.336
		c0.204-0.199,0.409-0.363,0.617-0.368c3.414-0.067,6.83-0.07,10.242,0.006c0.222,0.006,0.44,0.177,0.658,0.384
		c0.311,0.296,0.312,0.738-0.001,0.992c-0.211,0.171-0.422,0.312-0.641,0.322c-1.703,0.091-3.413,0.038-5.12,0.039
		c-1.708,0-3.417,0.054-5.119-0.039c-0.214-0.012-0.42-0.163-0.624-0.345C17.835,30.061,17.831,29.619,18.121,29.336z
		 M36.829,33.697c-1.337-0.025-2.403-1.124-2.398-2.472c0.007-1.366,1.063-2.398,2.448-2.388c1.358,0.011,2.428,1.089,2.417,2.438
		C39.285,32.588,38.129,33.721,36.829,33.697z M37.154,21.07c-8.832,0.014-17.664,0.021-26.495,0.022
		c-2.204,0.002-2.877-0.692-2.88-2.929c-0.004-3.285-0.012-6.569,0-9.854c0.008-1.954,0.754-2.684,2.735-2.688
		c4.479-0.008,8.959-0.003,13.439-0.002c4.437,0.002,8.873-0.002,13.311,0.004c2,0.003,2.771,0.763,2.784,2.793
		c0.02,3.242,0.024,6.485,0.006,9.728C40.041,20.382,39.355,21.066,37.154,21.07z"/>
</g>
<g>
</g>
<g>
</g>
<g>
</g>
<g>
</g>
<g>
</g>
<g>
</g>
<g>
</g>
<g>
</g>
<g>
</g>
<g>
</g>
<g>
</g>
<g>
</g>
<g>
</g>
<g>
</g>
<g>
</g>
</svg>
