<?xml version="1.0" encoding="utf-8"?>
<!-- Generator: Adobe Illustrator 16.0.0, SVG Export Plug-In . SVG Version: 6.00 Build 0)  -->
<!DOCTYPE svg PUBLIC "-//W3C//DTD SVG 1.1//EN" "http://www.w3.org/Graphics/SVG/1.1/DTD/svg11.dtd">
<svg version="1.1" id="Layer_1" xmlns="http://www.w3.org/2000/svg" xmlns:xlink="http://www.w3.org/1999/xlink" x="0px" y="0px"
	 width="141.73px" height="141.73px" viewBox="0 0 141.73 141.73" enable-background="new 0 0 141.73 141.73" xml:space="preserve">
<g>
	<path fill="#020202" d="M64.045,89.673c2.596,0.143,5.2,0.061,7.803,0.061c2.601-0.002,5.208,0.079,7.804-0.061
		c0.333-0.015,0.655-0.229,0.977-0.49c0.478-0.388,0.476-1.061,0.003-1.512c-0.333-0.315-0.665-0.576-1.004-0.586
		c-5.2-0.115-10.407-0.111-15.611-0.009c-0.317,0.007-0.629,0.257-0.94,0.561c-0.442,0.432-0.436,1.104,0.018,1.511
		C63.406,89.425,63.721,89.655,64.045,89.673z"/>
	<path fill="#020202" d="M60.913,49.839c3.642,0.021,7.282,0.006,10.922,0.008c3.706,0.001,7.411,0.001,11.117,0.005
		c1.476,0,2.676-0.529,2.678-2.149c0.003-1.633-1.186-2.133-2.676-2.13c-7.346,0.011-14.694,0.021-22.04-0.005
		c-1.487-0.003-2.598,0.467-2.815,2.048C57.92,48.9,59.134,49.828,60.913,49.839z"/>
	<path fill="#020202" d="M79.69,91.765c-5.195-0.106-10.397-0.116-15.592,0.001c-0.332,0.008-0.657,0.285-0.979,0.621
		c-0.457,0.473-0.375,1.172,0.218,1.522c0.405,0.239,0.816,0.437,1.151,0.453c2.527,0.133,4.862,0.054,7.911,0.064
		c1.525,0,4.884,0.004,7.485-0.002c0.954-0.002,1.902-0.107,1.679-1.355C81.467,92.528,80.3,91.777,79.69,91.765z"/>
	<path fill="#020202" d="M52.069,86.875c-2.071,0.054-3.742,1.751-3.678,3.743c0.061,2.005,1.82,3.709,3.804,3.688
		c1.983-0.022,3.644-1.775,3.621-3.818C55.793,88.401,54.154,86.82,52.069,86.875z"/>
	<path fill="#020202" d="M92.255,51.493c-6.765-0.01-13.526-0.003-20.289-0.006c-6.83-0.002-13.659-0.01-20.486,0.003
		c-3.019,0.006-4.156,1.118-4.168,4.097c-0.019,5.008-0.006,10.013,0,15.021c0.005,3.409,1.03,4.467,4.39,4.464
		c13.46-0.001,26.923-0.012,40.385-0.033c3.355-0.006,4.401-1.049,4.42-4.46c0.028-4.943,0.021-9.887-0.008-14.828
		C96.479,52.655,95.304,51.497,92.255,51.493z"/>
	<path fill="#020202" d="M91.668,86.876c-2.11-0.016-3.721,1.558-3.731,3.641c-0.008,2.054,1.617,3.729,3.655,3.767
		c1.981,0.038,3.744-1.689,3.761-3.69C95.369,88.536,93.738,86.893,91.668,86.876z"/>
	<path fill="#020202" d="M113.015,41.896l-41.13-41.13l-41.132,41.13c-22.715,22.715-22.714,59.544,0,82.26
		c22.717,22.716,59.547,22.716,82.263,0.001C135.73,101.44,135.73,64.611,113.015,41.896z M99.367,97.613
		c-0.019,1.696-1.234,4.972-3.533,4.998c-2.383,0.025-1.524,5.863-1.524,9.384c0,2.827-5.351,5.17-8.096,2.819
		c-1.278-1.096-2.795-2.63-4.479-2.63H61.157c-1.684,0-3.195,1.557-4.562,2.541c-2.613,1.877-7.657,1.092-7.657-3.112
		c0-2.065,0.546-8.406-1.727-8.365c-2.399,0.045-2.91-3.497-2.911-5.934c-0.013-15.286-0.04-30.573,0.024-45.861
		c0.016-3.935,3.031-6.947,6.947-7.4c13.693-1.577,27.385-1.433,41.077-0.012c4.027,0.417,7.076,3.478,7.091,7.464
		C99.487,66.727,99.528,82.393,99.367,97.613z"/>
</g>
</svg>
