<?xml version="1.0" encoding="utf-8"?>
<!-- Generator: Adobe Illustrator 16.0.0, SVG Export Plug-In . SVG Version: 6.00 Build 0)  -->
<!DOCTYPE svg PUBLIC "-//W3C//DTD SVG 1.1//EN" "http://www.w3.org/Graphics/SVG/1.1/DTD/svg11.dtd">
<svg version="1.1" id="Layer_1" xmlns="http://www.w3.org/2000/svg" xmlns:xlink="http://www.w3.org/1999/xlink" x="0px" y="0px"
	 width="141.73px" height="141.73px" viewBox="0 0 141.73 141.73" enable-background="new 0 0 141.73 141.73" xml:space="preserve">
<g>
	<path d="M52.069,70.136c-2.071,0.054-3.742,1.751-3.677,3.743c0.06,2.005,1.82,3.709,3.804,3.688
		c1.983-0.022,3.644-1.775,3.621-3.818C55.793,71.662,54.155,70.081,52.069,70.136z"/>
	<path d="M79.69,75.025c-5.195-0.106-10.397-0.116-15.591,0.001c-0.333,0.008-0.657,0.285-0.98,0.621
		c-0.457,0.473-0.375,1.172,0.218,1.522c0.405,0.239,0.816,0.437,1.151,0.453c2.527,0.133,4.863,0.054,7.911,0.064
		c1.525,0,4.884,0.004,7.485-0.002c0.954-0.002,1.902-0.107,1.679-1.355C81.467,75.789,80.3,75.038,79.69,75.025z"/>
	<path d="M60.914,33.099c3.641,0.021,7.282,0.005,10.922,0.007c3.706,0.001,7.411,0.001,11.117,0.005
		c1.476,0,2.676-0.529,2.678-2.149c0.003-1.632-1.186-2.133-2.676-2.13c-7.346,0.011-14.694,0.021-22.04-0.004
		c-1.487-0.003-2.598,0.466-2.816,2.047C57.92,32.16,59.134,33.088,60.914,33.099z"/>
	<path d="M64.045,72.934c2.595,0.143,5.2,0.061,7.803,0.061c2.601-0.002,5.208,0.079,7.804-0.061
		c0.333-0.015,0.655-0.229,0.977-0.49c0.478-0.388,0.476-1.061,0.003-1.512c-0.333-0.315-0.665-0.576-1.004-0.586
		c-5.2-0.115-10.407-0.111-15.611-0.009c-0.317,0.007-0.629,0.257-0.94,0.561c-0.442,0.432-0.436,1.104,0.018,1.511
		C63.406,72.686,63.721,72.916,64.045,72.934z"/>
	<path d="M113.016,17.803c-22.717-22.716-59.547-22.716-82.262,0c-22.716,22.716-22.716,59.546,0,82.261l41.13,41.13l41.132-41.13
		C135.73,77.349,135.729,40.519,113.016,17.803z M99.367,80.874c-0.019,1.696-1.234,4.972-3.533,4.998
		c-2.383,0.025-1.524,5.863-1.524,9.384c0,2.827-5.351,5.17-8.096,2.819c-1.278-1.096-2.795-2.63-4.479-2.63H61.157
		c-1.684,0-3.195,1.557-4.562,2.541c-2.613,1.877-7.657,1.092-7.657-3.112c0-2.065,0.546-8.406-1.726-8.365
		c-2.4,0.045-2.911-3.497-2.912-5.934c-0.012-15.287-0.04-30.574,0.024-45.862c0.016-3.935,3.032-6.948,6.947-7.401
		c13.694-1.577,27.385-1.433,41.077-0.012c4.027,0.417,7.076,3.478,7.091,7.464C99.487,49.986,99.528,65.653,99.367,80.874z"/>
	<path d="M92.255,34.753c-6.765-0.01-13.526-0.003-20.289-0.006c-6.829-0.002-13.658-0.01-20.485,0.003
		c-3.019,0.006-4.156,1.119-4.168,4.097c-0.018,5.008-0.006,10.013,0,15.021c0.005,3.41,1.03,4.467,4.39,4.464
		c13.46-0.001,26.923-0.012,40.385-0.033c3.355-0.006,4.401-1.049,4.42-4.46c0.028-4.943,0.021-9.887-0.008-14.829
		C96.479,35.916,95.304,34.757,92.255,34.753z"/>
	<path d="M91.668,70.137c-2.11-0.016-3.721,1.558-3.731,3.641c-0.008,2.054,1.617,3.729,3.655,3.767
		c1.981,0.038,3.744-1.689,3.761-3.69C95.369,71.797,93.738,70.153,91.668,70.137z"/>
</g>
</svg>
